<?xml version="1.0"?>
<!-- Generated by SVGo -->
<svg width="290.990mm" height="124.302mm"
     viewBox="0.000 0.000 290.990 124.302"
     xmlns="http://www.w3.org/2000/svg" 
     xmlns:xlink="http://www.w3.org/1999/xlink">
<polygon points="285.989,119.301 5.001,119.301 5.001,5.001 285.989,5.001" style="fill:none;stroke-width:0.050000mm;stroke:black"/>
<polygon points="78.963,102.775 78.963,116.775 92.963,116.775 92.963,102.775" style="fill:none;stroke-width:0.050000mm;stroke:black"/>
<polygon points="98.013,102.775 98.013,116.775 112.013,116.775 112.013,102.775" style="fill:none;stroke-width:0.050000mm;stroke:black"/>
<polygon points="117.063,102.775 117.063,116.775 131.063,116.775 131.063,102.775" style="fill:none;stroke-width:0.050000mm;stroke:black"/>
<polygon points="136.113,102.775 136.113,116.775 150.113,116.775 150.113,102.775" style="fill:none;stroke-width:0.050000mm;stroke:black"/>
<polygon points="14.669,83.726 14.669,97.726 28.669,97.726 28.669,83.726" style="fill:none;stroke-width:0.050000mm;stroke:black"/>
<polygon points="40.863,83.726 40.863,97.726 54.863,97.726 54.863,83.726" style="fill:none;stroke-width:0.050000mm;stroke:black"/>
<polygon points="59.913,83.726 59.913,97.726 73.913,97.726 73.913,83.726" style="fill:none;stroke-width:0.050000mm;stroke:black"/>
<polygon points="78.963,83.726 78.963,97.726 92.963,97.726 92.963,83.726" style="fill:none;stroke-width:0.050000mm;stroke:black"/>
<polygon points="98.013,83.726 98.013,97.726 112.013,97.726 112.013,83.726" style="fill:none;stroke-width:0.050000mm;stroke:black"/>
<polygon points="117.063,83.726 117.063,97.726 131.063,97.726 131.063,83.726" style="fill:none;stroke-width:0.050000mm;stroke:black"/>
<polygon points="136.113,83.726 136.113,97.726 150.113,97.726 150.113,83.726" style="fill:none;stroke-width:0.050000mm;stroke:black"/>
<polygon points="155.163,83.726 155.163,97.726 169.163,97.726 169.163,83.726" style="fill:none;stroke-width:0.050000mm;stroke:black"/>
<polygon points="174.213,83.726 174.213,97.726 188.213,97.726 188.213,83.726" style="fill:none;stroke-width:0.050000mm;stroke:black"/>
<polygon points="193.263,83.726 193.263,97.726 207.263,97.726 207.263,83.726" style="fill:none;stroke-width:0.050000mm;stroke:black"/>
<polygon points="212.313,83.726 212.313,97.726 226.313,97.726 226.313,83.726" style="fill:none;stroke-width:0.050000mm;stroke:black"/>
<polygon points="231.363,83.726 231.363,97.726 245.363,97.726 245.363,83.726" style="fill:none;stroke-width:0.050000mm;stroke:black"/>
<polygon points="250.413,83.726 250.413,97.726 264.413,97.726 264.413,83.726" style="fill:none;stroke-width:0.050000mm;stroke:black"/>
<polygon points="269.463,83.726 269.463,97.726 283.463,97.726 283.463,83.726" style="fill:none;stroke-width:0.050000mm;stroke:black"/>
<polygon points="14.669,64.676 14.669,78.676 28.669,78.676 28.669,64.676" style="fill:none;stroke-width:0.050000mm;stroke:black"/>
<polygon points="40.863,64.676 40.863,78.676 54.863,78.676 54.863,64.676" style="fill:none;stroke-width:0.050000mm;stroke:black"/>
<polygon points="59.913,64.676 59.913,78.676 73.913,78.676 73.913,64.676" style="fill:none;stroke-width:0.050000mm;stroke:black"/>
<polygon points="78.963,64.676 78.963,78.676 92.963,78.676 92.963,64.676" style="fill:none;stroke-width:0.050000mm;stroke:black"/>
<polygon points="98.013,64.676 98.013,78.676 112.013,78.676 112.013,64.676" style="fill:none;stroke-width:0.050000mm;stroke:black"/>
<polygon points="117.063,64.676 117.063,78.676 131.063,78.676 131.063,64.676" style="fill:none;stroke-width:0.050000mm;stroke:black"/>
<polygon points="136.113,64.676 136.113,78.676 150.113,78.676 150.113,64.676" style="fill:none;stroke-width:0.050000mm;stroke:black"/>
<polygon points="155.163,64.676 155.163,78.676 169.163,78.676 169.163,64.676" style="fill:none;stroke-width:0.050000mm;stroke:black"/>
<polygon points="174.213,64.676 174.213,78.676 188.213,78.676 188.213,64.676" style="fill:none;stroke-width:0.050000mm;stroke:black"/>
<polygon points="193.263,64.676 193.263,78.676 207.263,78.676 207.263,64.676" style="fill:none;stroke-width:0.050000mm;stroke:black"/>
<polygon points="212.313,64.676 212.313,78.676 226.313,78.676 226.313,64.676" style="fill:none;stroke-width:0.050000mm;stroke:black"/>
<polygon points="231.363,64.676 231.363,78.676 245.363,78.676 245.363,64.676" style="fill:none;stroke-width:0.050000mm;stroke:black"/>
<polygon points="250.413,64.676 250.413,78.676 264.413,78.676 264.413,64.676" style="fill:none;stroke-width:0.050000mm;stroke:black"/>
<polygon points="269.463,64.676 269.463,78.676 283.463,78.676 283.463,64.676" style="fill:none;stroke-width:0.050000mm;stroke:black"/>
<polygon points="9.907,45.626 9.907,59.626 23.907,59.626 23.907,45.626" style="fill:none;stroke-width:0.050000mm;stroke:black"/>
<polygon points="31.338,45.626 31.338,59.626 45.338,59.626 45.338,45.626" style="fill:none;stroke-width:0.050000mm;stroke:black"/>
<polygon points="50.388,45.626 50.388,59.626 64.388,59.626 64.388,45.626" style="fill:none;stroke-width:0.050000mm;stroke:black"/>
<polygon points="69.438,45.626 69.438,59.626 83.438,59.626 83.438,45.626" style="fill:none;stroke-width:0.050000mm;stroke:black"/>
<polygon points="88.488,45.626 88.488,59.626 102.488,59.626 102.488,45.626" style="fill:none;stroke-width:0.050000mm;stroke:black"/>
<polygon points="107.538,45.626 107.538,59.626 121.538,59.626 121.538,45.626" style="fill:none;stroke-width:0.050000mm;stroke:black"/>
<polygon points="126.588,45.626 126.588,59.626 140.588,59.626 140.588,45.626" style="fill:none;stroke-width:0.050000mm;stroke:black"/>
<polygon points="145.638,45.626 145.638,59.626 159.638,59.626 159.638,45.626" style="fill:none;stroke-width:0.050000mm;stroke:black"/>
<polygon points="164.688,45.626 164.688,59.626 178.688,59.626 178.688,45.626" style="fill:none;stroke-width:0.050000mm;stroke:black"/>
<polygon points="183.738,45.626 183.738,59.626 197.738,59.626 197.738,45.626" style="fill:none;stroke-width:0.050000mm;stroke:black"/>
<polygon points="202.788,45.626 202.788,59.626 216.788,59.626 216.788,45.626" style="fill:none;stroke-width:0.050000mm;stroke:black"/>
<polygon points="221.838,45.626 221.838,59.626 235.838,59.626 235.838,45.626" style="fill:none;stroke-width:0.050000mm;stroke:black"/>
<polygon points="248.032,45.626 248.032,59.626 262.032,59.626 262.032,45.626" style="fill:none;stroke-width:0.050000mm;stroke:black"/>
<polygon points="7.526,26.576 7.526,40.576 21.526,40.576 21.526,26.576" style="fill:none;stroke-width:0.050000mm;stroke:black"/>
<polygon points="26.576,26.576 26.576,40.576 40.576,40.576 40.576,26.576" style="fill:none;stroke-width:0.050000mm;stroke:black"/>
<polygon points="45.626,26.576 45.626,40.576 59.626,40.576 59.626,26.576" style="fill:none;stroke-width:0.050000mm;stroke:black"/>
<polygon points="64.676,26.576 64.676,40.576 78.676,40.576 78.676,26.576" style="fill:none;stroke-width:0.050000mm;stroke:black"/>
<polygon points="83.726,26.576 83.726,40.576 97.726,40.576 97.726,26.576" style="fill:none;stroke-width:0.050000mm;stroke:black"/>
<polygon points="102.775,26.576 102.775,40.576 116.775,40.576 116.775,26.576" style="fill:none;stroke-width:0.050000mm;stroke:black"/>
<polygon points="121.825,26.576 121.825,40.576 135.826,40.576 135.826,26.576" style="fill:none;stroke-width:0.050000mm;stroke:black"/>
<polygon points="140.876,26.576 140.876,40.576 154.876,40.576 154.876,26.576" style="fill:none;stroke-width:0.050000mm;stroke:black"/>
<polygon points="159.926,26.576 159.926,40.576 173.926,40.576 173.926,26.576" style="fill:none;stroke-width:0.050000mm;stroke:black"/>
<polygon points="178.976,26.576 178.976,40.576 192.976,40.576 192.976,26.576" style="fill:none;stroke-width:0.050000mm;stroke:black"/>
<polygon points="198.026,26.576 198.026,40.576 212.026,40.576 212.026,26.576" style="fill:none;stroke-width:0.050000mm;stroke:black"/>
<polygon points="217.076,26.576 217.076,40.576 231.076,40.576 231.076,26.576" style="fill:none;stroke-width:0.050000mm;stroke:black"/>
<polygon points="236.126,26.576 236.126,40.576 250.126,40.576 250.126,26.576" style="fill:none;stroke-width:0.050000mm;stroke:black"/>
<polygon points="255.176,26.576 255.176,40.576 269.176,40.576 269.176,26.576" style="fill:none;stroke-width:0.050000mm;stroke:black"/>
<polygon points="7.526,7.526 7.526,21.526 21.526,21.526 21.526,7.526" style="fill:none;stroke-width:0.050000mm;stroke:black"/>
<polygon points="26.576,7.526 26.576,21.526 40.576,21.526 40.576,7.526" style="fill:none;stroke-width:0.050000mm;stroke:black"/>
<polygon points="45.626,7.526 45.626,21.526 59.626,21.526 59.626,7.526" style="fill:none;stroke-width:0.050000mm;stroke:black"/>
<polygon points="64.676,7.526 64.676,21.526 78.676,21.526 78.676,7.526" style="fill:none;stroke-width:0.050000mm;stroke:black"/>
<polygon points="83.726,7.526 83.726,21.526 97.726,21.526 97.726,7.526" style="fill:none;stroke-width:0.050000mm;stroke:black"/>
<polygon points="102.775,7.526 102.775,21.526 116.775,21.526 116.775,7.526" style="fill:none;stroke-width:0.050000mm;stroke:black"/>
<polygon points="121.825,7.526 121.825,21.526 135.826,21.526 135.826,7.526" style="fill:none;stroke-width:0.050000mm;stroke:black"/>
<polygon points="140.876,7.526 140.876,21.526 154.876,21.526 154.876,7.526" style="fill:none;stroke-width:0.050000mm;stroke:black"/>
<polygon points="159.926,7.526 159.926,21.526 173.926,21.526 173.926,7.526" style="fill:none;stroke-width:0.050000mm;stroke:black"/>
<polygon points="178.976,7.526 178.976,21.526 192.976,21.526 192.976,7.526" style="fill:none;stroke-width:0.050000mm;stroke:black"/>
<polygon points="198.026,7.526 198.026,21.526 212.026,21.526 212.026,7.526" style="fill:none;stroke-width:0.050000mm;stroke:black"/>
<polygon points="217.076,7.526 217.076,21.526 231.076,21.526 231.076,7.526" style="fill:none;stroke-width:0.050000mm;stroke:black"/>
<polygon points="236.126,7.526 236.126,21.526 250.126,21.526 250.126,7.526" style="fill:none;stroke-width:0.050000mm;stroke:black"/>
<polygon points="255.176,7.526 255.176,21.526 269.176,21.526 269.176,7.526" style="fill:none;stroke-width:0.050000mm;stroke:black"/>
</svg>
